#!OML:ASF H:\ManfredETheater\Project 1\Capture day 1\Session 1\subject.ASF
:FULLY-SPECIFIED
:DEGREES
183
root 16.3185 16.3012 -35.2167 -192.914 37.4881 -183.931
lowerback 8.42437 -3.28784 -3.60963
upperback -0.523579 -4.65696 1.39876
thorax -4.85996 -2.18595 4.04998
lowerneck -17.7223 -1.55344 -3.17907
upperneck 21.8957 -0.489162 -1.78027
head 9.90627 -0.57764 -0.13884
rclavicle -1.86858e-014 1.35174e-014
rhumerus -63.0092 4.02952 -88.8965
rradius 105.681
rwrist -6.02272
rhand -19.3216 10.4291
rfingers 7.12502
rthumb 6.99474 -19.4353
lclavicle -1.86858e-014 1.35174e-014
lhumerus -35.7292 -17.3823 93.2103
lradius 111.907
lwrist 10.3275
lhand -20.8898 -7.28158
lfingers 7.12502
lthumb 5.48073 22.6275
rfemur -33.0494 -8.8996 17.3348
rtibia 37.2691
rfoot 8.84328 -3.81421
rtoes -17.2911
lfemur -4.80493 -8.82767 -22.949
ltibia 70.5421
lfoot -13.906 -12.7546
ltoes -7.60332
184
root 16.5226 16.2548 -35.4102 -192.879 37.2062 -183.688
lowerback 8.73615 -3.15537 -3.52878
upperback -0.70574 -4.48312 1.45351
thorax -5.24485 -2.08697 4.07436
lowerneck -17.6944 -1.57373 -3.21113
upperneck 21.9729 -0.481424 -1.85057
head 9.92908 -0.582629 -0.156754
rclavicle -1.41237e-013 -8.74653e-015
rhumerus -63.0875 3.98614 -88.4041
rradius 105.246
rwrist -5.93232
rhand -19.3569 10.343
rfingers 7.12502
rthumb 6.96062 -19.5225
lclavicle -1.41237e-013 -8.74653e-015
lhumerus -35.6586 -18.0464 93.3393
lradius 111.695
lwrist 9.39851
lhand -20.8017 -7.64363
lfingers 7.12502
lthumb 5.56579 22.2633
rfemur -33.1078 -8.72766 17.599
rtibia 39.3653
rfoot 7.13835 -4.09457
rtoes -14.3228
lfemur -4.40216 -8.6877 -22.6646
ltibia 71.4105
lfoot -12.1568 -12.8768
ltoes -6.67799
185
root 16.718 16.2117 -35.597 -192.711 37.0804 -183.169
lowerback 9.14756 -2.99941 -3.22349
upperback -0.859624 -4.24685 1.59213
thorax -5.67222 -1.96098 4.05702
lowerneck -17.6676 -1.58579 -3.23272
upperneck 22.0146 -0.464719 -1.93206
head 9.93933 -0.584057 -0.179061
rclavicle 4.24405e-014 -1.82882e-014
rhumerus -63.0449 4.0277 -87.9185
rradius 104.728
rwrist -5.87343
rhand -19.39 10.2587
rfingers 7.12502
rthumb 6.9287 -19.6079
lclavicle 4.24405e-014 -1.82882e-014
lhumerus -35.6375 -18.526 93.5628
lradius 111.404
lwrist 8.32541
lhand -20.6954 -8.11795
lfingers 7.12502
lthumb 5.66847 21.7862
rfemur -33.168 -8.27963 18.0631
rtibia 41.5708
rfoot 5.38677 -4.81365
rtoes -12.1528
lfemur -4.13 -8.4321 -22.0938
ltibia 72.4783
lfoot -10.2361 -12.9321
ltoes -5.65578
186
root 16.9051 16.1737 -35.7772 -192.414 37.0925 -182.425
lowerback 9.6015 -2.83273 -2.73896
upperback -0.976589 -3.96373 1.80205
thorax -6.09528 -1.81727 4.00562
lowerneck -17.6526 -1.5805 -3.25134
upperneck 22.0075 -0.431295 -2.00174
head 9.93418 -0.576642 -0.195453
rclavicle -9.24349e-015 2.06736e-014
rhumerus -62.8179 4.15653 -87.455
rradius 104.068
rwrist -5.88781
rhand -19.4327 10.1683
rfingers 7.12502
rthumb 6.88748 -19.6997
lclavicle -9.24349e-015 2.06736e-014
lhumerus -35.6626 -18.7797 93.8708
lradius 111.008
lwrist 7.07777
lhand -20.5837 -8.70198
lfingers 7.12502
lthumb 5.77632 21.1993
rfemur -33.1905 -7.64689 18.704
rtibia 43.6824
rfoot 3.75301 -5.76901
rtoes -10.8418
lfemur -4.0038 -8.08709 -21.2896
ltibia 73.6807
lfoot -8.131 -12.9246
ltoes -4.40219
187
root 17.0839 16.1419 -35.9514 -192.002 37.1753 -181.522
lowerback 10.0481 -2.66892 -2.13633
upperback -1.05317 -3.65479 2.06857
thorax -6.47557 -1.66616 3.93727
lowerneck -17.6815 -1.55922 -3.25176
upperneck 21.9699 -0.377004 -2.0919
head 9.92618 -0.561318 -0.219523
rclavicle 3.35946e-014 -7.15625e-015
rhumerus -62.3906 4.39112 -87.0001
rradius 103.245
rwrist -6.04449
rhand -19.4737 10.0895
rfingers 7.12502
rthumb 6.84791 -19.7798
lclavicle 3.35946e-014 -7.15625e-015
lhumerus -35.7237 -18.7985 94.2637
lradius 110.468
lwrist 5.66689
lhand -20.5033 -9.38591
lfingers 7.12502
lthumb 5.85392 20.5132
rfemur -33.1804 -6.96678 19.4689
rtibia 45.6459
rfoot 2.27004 -6.69186
rtoes -10.1787
lfemur -4.04607 -7.70638 -20.3356
ltibia 74.9963
lfoot -5.91971 -12.8416
ltoes -2.82784
188
root 17.2552 16.117 -36.1202 -191.526 37.2458 -180.588
lowerback 10.4034 -2.52682 -1.5172
upperback -1.07418 -3.36028 2.34562
thorax -6.74169 -1.52684 3.86062
lowerneck -17.7551 -1.51438 -3.21053
upperneck 21.8715 -0.301664 -2.19992
head 9.90444 -0.536028 -0.254142
rclavicle 3.56818e-014 -2.14687e-014
rhumerus -61.6614 4.70207 -86.5636
rradius 102.181
rwrist -6.35222
rhand -19.5093 10.0285
rfingers 7.12502
rthumb 6.81354 -19.8418
lclavicle 3.56818e-014 -2.14687e-014
lhumerus -35.7861 -18.5869 94.6951
lradius 109.736
lwrist 4.08225
lhand -20.5143 -10.0966
lfingers 7.12502
lthumb 5.84333 19.8028
rfemur -33.1482 -6.36185 20.2462
rtibia 47.4306
rfoot 0.895823 -7.50442
rtoes -10.0635
lfemur -4.2929 -7.33733 -19.3685
ltibia 76.402
lfoot -3.72131 -12.6587
ltoes -0.90138
189
root 17.42 16.0979 -36.2841 -191.051 37.2155 -179.746
lowerback 10.6473 -2.41669 -1.00242
upperback -1.0511 -3.11617 2.60859
thorax -6.88669 -1.41254 3.82429
lowerneck -17.8628 -1.4472 -3.13444
upperneck 21.7181 -0.205195 -2.3245
head 9.86929 -0.500857 -0.297573
rclavicle -1.68967e-015 -1.74931e-014
rhumerus -60.6191 5.09375 -86.1261
rradius 100.829
rwrist -6.78937
rhand -19.5858 9.99769
rfingers 7.12502
rthumb 6.73964 -19.875
lclavicle -1.68967e-015 -1.74931e-014
lhumerus -35.8506 -18.1559 95.1603
lradius 108.768
lwrist 2.4219
lhand -20.6543 -10.7637
lfingers 7.12502
lthumb 5.70817 19.1394
rfemur -33.0782 -5.95515 20.9316
rtibia 49.0232
rfoot -0.394208 -8.20302
rtoes -10.2968
lfemur -4.75829 -7.0021 -18.5014
ltibia 77.8731
lfoot -1.74621 -12.377
ltoes 1.04907
